<svg width="32" height="32" viewBox="0 0 32 32" fill="none" xmlns="http://www.w3.org/2000/svg">
  <rect x="1" y="1" width="30" height="30" rx="7" fill="#071114" stroke="#B9FF2C" stroke-width="2"/>
  <circle cx="16" cy="16" r="10.5" fill="#B9FF2C"/>
  <path d="M8.25 9.05C10.7 10.85 11.7 13.05 11.7 16C11.7 18.95 10.7 21.15 8.25 22.95" stroke="#F6FFE4" stroke-width="1.65" stroke-linecap="round"/>
  <path d="M23.75 9.05C21.3 10.85 20.3 13.05 20.3 16C20.3 18.95 21.3 21.15 23.75 22.95" stroke="#F6FFE4" stroke-width="1.65" stroke-linecap="round"/>
  <path d="M11.5 10.5V17.15C11.5 20.25 13.15 22 16 22C18.85 22 20.5 20.25 20.5 17.15V10.5H17.65V17C17.65 18.6 17.1 19.25 16 19.25C14.9 19.25 14.35 18.6 14.35 17V10.5H11.5Z" fill="#071114"/>
</svg>
